<svg width="32" height="32" viewBox="0 0 32 32" xmlns="http://www.w3.org/2000/svg">
  <rect width="32" height="32" rx="8" fill="#111827"></rect>
  <circle cx="16" cy="16" r="12" fill="#c96f2d"></circle>
  <circle cx="16" cy="16" r="10" fill="#f59e0b"></circle>
  
  <!-- antennas -->
  <path d="M12 7 L10 3" stroke="#e5e7eb" stroke-width="1.6" stroke-linecap="round"></path>
  <path d="M16 6 L16 2" stroke="#e5e7eb" stroke-width="1.6" stroke-linecap="round"></path>
  <path d="M20 7 L22 3" stroke="#e5e7eb" stroke-width="1.6" stroke-linecap="round"></path>
  <circle cx="10" cy="3" r="1.4" fill="#60a5fa"></circle>
  <circle cx="16" cy="2" r="1.4" fill="#34d399"></circle>
  <circle cx="22" cy="3" r="1.4" fill="#f87171"></circle>
  
  <!-- robot face -->
  <rect x="8" y="10" width="16" height="14" rx="3" fill="#78350f"></rect>
  <rect x="9.5" y="11.5" width="13" height="11" rx="2" fill="#fbbf24"></rect>
  
  <!-- eyes -->
  <circle cx="12.5" cy="16" r="2" fill="#111827"></circle>
  <circle cx="19.5" cy="16" r="2" fill="#111827"></circle>
  <circle cx="13.1" cy="15.4" r="0.6" fill="#ffffff"></circle>
  <circle cx="20.1" cy="15.4" r="0.6" fill="#ffffff"></circle>
  
  <!-- mouth -->
  <rect x="12" y="20" width="8" height="1.6" rx="0.8" fill="#111827"></rect>
  
  <!-- bolts -->
  <circle cx="7.5" cy="17" r="1.2" fill="#9ca3af"></circle>
  <circle cx="24.5" cy="17" r="1.2" fill="#9ca3af"></circle>
</svg>